# xmcd CD database file
#
# Track frame offsets:
#	150
#	10732
#	21823
#	40161
#	53155
#	61998
#	73387
#	83091
#	95811
#	112488
#	123859
#	140010
#	150005
#	167136
#	179253
#
# Disc length: 2529 seconds
#
# Revision: 0
# Processed by: cddbd v1.5.2PL0 Copyright (c) Steve Scherf et al.
# Submitted via: CDex 1.70beta2
#
DISCID=ca09df0f
DTITLE=Jižní eskadrona - Písničky jižní esk. 2
DYEAR=1900
DGENRE=Country
TTITLE0=Řeka hučí
TTITLE1=Pochod amerických námořníků
TTITLE2=Guadalcanal
TTITLE3=Prokletej bar
TTITLE4=Naraž si bouřku
TTITLE5=Zlatokop tom
TTITLE6=Valčíček
TTITLE7=Za svou pravdou stát
TTITLE8=Odešel kamarád
TTITLE9=Zrádné banjo
TTITLE10=Letí šíp savanou
TTITLE11=Jó, Kanada
TTITLE12=Ascalona
TTITLE13=Na osadě hráli
TTITLE14=Riktatado
EXTD=
EXTT0=
EXTT1=
EXTT2=
EXTT3=
EXTT4=
EXTT5=
EXTT6=
EXTT7=
EXTT8=
EXTT9=
EXTT10=
EXTT11=
EXTT12=
EXTT13=
EXTT14=
PLAYORDER=
